<svg xmlns="http://www.w3.org/2000/svg" viewBox="0 0 100 100">
  <rect width="100" height="100" rx="20" fill="hsl(25,45%,33%)"/>
  <!-- roof + right leg: right leg outer edge at x=70, left leg outer edge at x=31, midpoint=50.5 -->
  <path d="M26,23 Q26,16 33,16 L70,16 Q77,16 77,23 Q77,30 70,30 L70,50 Q70,56 65,56 Q60,56 60,50 L60,30 L33,30 Q26,30 26,23 Z" fill="hsl(45,70%,88%)"/>
  <!-- left leg: x=31 to x=45 -->
  <path d="M31,44 Q31,40 36,40 L40,40 Q45,40 45,44 L45,80 Q45,84 40,84 L36,84 Q31,84 31,80 Z" fill="hsl(45,70%,88%)"/>
</svg>
